<?xml version="1.0" encoding="UTF-8"?>
<svg version="1.1" xmlns="http://www.w3.org/2000/svg" width="225" height="225">
<path d="M0 0 C74.25 0 148.5 0 225 0 C225 74.25 225 148.5 225 225 C150.75 225 76.5 225 0 225 C0 150.75 0 76.5 0 0 Z " fill="#FEFEFE" transform="translate(0,0)"/>
<path d="M0 0 C12.22152033 -0.04626542 24.44301996 -0.08183965 36.66460991 -0.10362434 C42.33910075 -0.11407795 48.01353184 -0.12826583 53.68798828 -0.15087891 C59.16037715 -0.17255116 64.63270841 -0.18455674 70.10513687 -0.18975449 C72.19680819 -0.19346037 74.28847623 -0.20069663 76.38012314 -0.21146011 C79.30149999 -0.22590041 82.22263639 -0.22798108 85.14404297 -0.22705078 C86.01582184 -0.23424133 86.88760071 -0.24143188 87.78579712 -0.24884033 C93.77189568 -0.22810432 93.77189568 -0.22810432 96 2 C96.77127551 8.45265923 93.98309613 12.73342606 90.30615234 17.77587891 C83.15421884 26.78598348 75.94842621 33.47948828 64.07038307 34.99043465 C42.89711074 37.08289262 21.17174246 35.49209681 0 34 C0.0577359 34.81922943 0.1154718 35.63845886 0.17495728 36.48251343 C4.61469851 102.44462752 4.61469851 102.44462752 -7.26126099 116.4178772 C-13.03704206 122.38637622 -20.79522341 129.58706788 -29.32958984 130.26416016 C-32 130 -32 130 -33 129 C-33.26571924 126.21958339 -33.46541513 123.46096824 -33.62133789 120.67358398 C-33.67288528 119.79825012 -33.72443268 118.92291626 -33.77754211 118.02105713 C-34.23620917 109.82419403 -34.51620941 101.62280721 -34.74012089 93.41647243 C-34.89424931 87.91789527 -35.10625676 82.4365966 -35.46899414 76.94750977 C-37.97371486 38.07157891 -37.97371486 38.07157891 -25.76513672 23.84033203 C-19.17569263 16.62870502 -11.77913964 10.29397253 -4.01829529 4.38002014 C-0.99385541 2.34223822 -0.99385541 2.34223822 0 0 Z " fill="#ED1C24" transform="translate(81,47)"/>
<path d="M0 0 C4.31332978 1.72533191 7.73609216 3.67683331 11.51171875 6.26953125 C12.85153106 7.17606158 14.19189426 8.08177806 15.53271484 8.98681641 C16.61114655 9.71653656 16.61114655 9.71653656 17.71136475 10.46099854 C21.8131431 13.21925496 25.94917266 15.92535415 30.08203125 18.63671875 C31.8561703 19.80265753 33.6302583 20.96867397 35.40429688 22.13476562 C38.11993227 23.91903082 40.83586721 25.70283453 43.55249023 27.4855957 C48.67112737 30.84531715 53.78364489 34.21386199 58.88482666 37.60003662 C60.73486508 38.82451595 62.59170408 40.03770961 64.45068359 41.24853516 C65.3577002 41.85358887 66.2647168 42.45864258 67.19921875 43.08203125 C67.93358154 43.56518799 68.66794434 44.04834473 69.42456055 44.54614258 C71.31794668 46.29340965 71.72990059 47.46027401 72 50 C70.31985205 51.68014795 68.22785935 51.18778713 65.92041016 51.24047852 C64.2920372 51.27909752 64.2920372 51.27909752 62.63076782 51.3184967 C57.62163536 51.40274622 52.61265759 51.46863933 47.60302734 51.51489258 C44.9686668 51.54641954 42.3344457 51.59405331 39.70068359 51.65844727 C35.8962682 51.75021519 32.09442157 51.7886113 28.2890625 51.81640625 C27.12404205 51.85455948 25.95902161 51.89271271 24.75869751 51.93202209 C15.60940384 51.91053559 10.84312916 48.83869825 4 43 C2.10620964 41.69006309 0.20515823 40.39036926 -1.7109375 39.11328125 C-2.64550781 38.48486328 -3.58007812 37.85644531 -4.54296875 37.20898438 C-6.4525907 35.93019616 -8.36409394 34.65421339 -10.27734375 33.38085938 C-11.20417969 32.75630859 -12.13101563 32.13175781 -13.0859375 31.48828125 C-13.9114209 30.93696533 -14.7369043 30.38564941 -15.58740234 29.81762695 C-18 28 -18 28 -23 23 C-15.41 15.41 -7.82 7.82 0 0 Z " fill="#EC1B22" transform="translate(105,126)"/>
<path d="M0 0 C4.40199758 3.17353314 7.22007544 6.13701722 8.13671875 11.62890625 C8.37022134 17.54698919 7.78425842 21.39784878 3.6875 25.9375 C-0.70577848 29.90216595 -4.10788857 31.38417793 -10.12109375 31.2734375 C-14.96127969 30.53144821 -18.76292622 27.97893288 -21.703125 24.10546875 C-24.39046697 19.30799558 -25.01370099 15.37180767 -24.3125 9.9375 C-19.06058547 -0.17729836 -10.68302608 -3.42663101 0 0 Z " fill="#ED1B23" transform="translate(137.3125,93.0625)"/>
</svg>
